<?xml version="1.0" standalone="no"?><!DOCTYPE svg PUBLIC "-//W3C//DTD SVG 1.1//EN" "http://www.w3.org/Graphics/SVG/1.1/DTD/svg11.dtd"><svg t="1577357866209" class="icon" viewBox="0 0 1024 1024" version="1.1" xmlns="http://www.w3.org/2000/svg" p-id="19812" xmlns:xlink="http://www.w3.org/1999/xlink" width="200" height="200"><defs><style type="text/css"></style></defs><path d="M678.4 98.133333c17.066667-17.066667 42.666667-17.066667 59.733333 0l187.733334 183.466667c8.533333 8.533333 12.8 21.333333 12.8 29.866667 0 12.8-4.266667 21.333333-12.8 29.866666L401.066667 866.133333c-8.533333 8.533333-17.066667 12.8-25.6 12.8l-200.533334 17.066667c-12.8 0-25.6-4.266667-34.133333-12.8-8.533333-8.533333-12.8-21.333333-12.8-34.133333l12.8-204.8c0-8.533333 4.266667-21.333333 12.8-25.6l268.8-264.533334c17.066667-17.066667 42.666667-17.066667 59.733333 0 17.066667 17.066667 17.066667 42.666667 0 59.733334l-256 256-8.533333 136.533333 132.266667-12.8L836.266667 311.466667l-123.733334-123.733334-93.866666 93.866667 76.8 72.533333c12.8 8.533333 17.066667 25.6 12.8 42.666667-4.266667 17.066667-17.066667 25.6-29.866667 29.866667-17.066667 4.266667-29.866667 0-42.666667-12.8l-106.666666-102.4c-12.8-4.266667-17.066667-17.066667-17.066667-29.866667 0-12.8 4.266667-21.333333 12.8-29.866667l153.6-153.6z" p-id="19813"></path></svg>