<?xml version="1.0" standalone="no"?><!DOCTYPE svg PUBLIC "-//W3C//DTD SVG 1.1//EN" "http://www.w3.org/Graphics/SVG/1.1/DTD/svg11.dtd"><svg t="1577417261579" class="icon" viewBox="0 0 1024 1024" version="1.1" xmlns="http://www.w3.org/2000/svg" p-id="7913" xmlns:xlink="http://www.w3.org/1999/xlink" width="200" height="200"><defs><style type="text/css"></style></defs><path d="M857.6 460.8H366.933333L384 426.666667h324.266667c21.333333 0 38.4-17.066667 38.4-38.4s-17.066667-38.4-38.4-38.4h-38.4l72.533333-196.266667c8.533333-21.333333 4.266667-46.933333-8.533333-68.266667s-38.4-29.866667-59.733334-29.866666h-89.6c-29.866667 0-59.733333 17.066667-68.266666 46.933333L426.666667 349.866667H384c-29.866667 0-59.733333 17.066667-68.266667 46.933333l-25.6 64H128c-21.333333 0-38.4 17.066667-38.4 38.4s17.066667 38.4 38.4 38.4h46.933333l-76.8 204.8c-34.133333 93.866667 38.4 196.266667 140.8 196.266667h524.8c12.8 0 25.6-8.533333 34.133334-21.333334 4.266667-12.8 4.266667-29.866667-4.266667-38.4l-42.666667-51.2c-8.533333-8.533333-12.8-25.6-8.533333-38.4l93.866667-256h25.6c21.333333 0 38.4-17.066667 38.4-38.4-4.266667-17.066667-21.333333-34.133333-42.666667-34.133333z m-268.8-328.533333h89.6l-85.333333 221.866666h-89.6l85.333333-221.866666zM669.866667 768c-12.8 34.133333-8.533333 68.266667 12.8 98.133333h-102.4c-17.066667 0-38.4-8.533333-46.933334-25.6-12.8-17.066667-12.8-34.133333-8.533333-51.2l34.133333-93.866666c8.533333-17.066667-4.266667-38.4-21.333333-46.933334-21.333333-8.533333-42.666667 4.266667-46.933333 21.333334l-34.133334 93.866666c-12.8 34.133333-8.533333 72.533333 8.533334 102.4H396.8c-21.333333 0-38.4-8.533333-46.933333-25.6-8.533333-17.066667-12.8-34.133333-8.533334-55.466666l34.133334-89.6c8.533333-17.066667-4.266667-38.4-21.333334-46.933334-21.333333-8.533333-42.666667 4.266667-46.933333 21.333334l-34.133333 93.866666c-12.8 34.133333-8.533333 72.533333 4.266666 102.4h-38.4c-25.6 0-46.933333-12.8-59.733333-29.866666-12.8-21.333333-17.066667-42.666667-8.533333-68.266667l85.333333-230.4h499.2l-85.333333 230.4z" p-id="7914"></path></svg>