<?xml version="1.0" standalone="no"?><!DOCTYPE svg PUBLIC "-//W3C//DTD SVG 1.1//EN" "http://www.w3.org/Graphics/SVG/1.1/DTD/svg11.dtd"><svg t="1577358034728" class="icon" viewBox="0 0 1024 1024" version="1.1" xmlns="http://www.w3.org/2000/svg" p-id="20148" xmlns:xlink="http://www.w3.org/1999/xlink" width="200" height="200"><defs><style type="text/css"></style></defs><path d="M394.496 163.413333A42.666667 42.666667 0 0 1 426.666667 204.8v614.4a42.666667 42.666667 0 0 1-42.666667 42.666667H51.2a42.666667 42.666667 0 0 1-37.546667-62.976l332.8-614.4a42.666667 42.666667 0 0 1 48.042667-21.034667zM122.837333 776.533333H341.333333V373.162667L122.837333 776.533333zM603.904 163.413333a42.666667 42.666667 0 0 0-32.170667 41.386667v614.4a42.666667 42.666667 0 0 0 42.666667 42.666667h332.8a42.666667 42.666667 0 0 0 37.546667-62.976l-332.8-614.4a42.666667 42.666667 0 0 0-48.042667-21.034667z" p-id="20149"></path></svg>