<?xml version="1.0" standalone="no"?><!DOCTYPE svg PUBLIC "-//W3C//DTD SVG 1.1//EN" "http://www.w3.org/Graphics/SVG/1.1/DTD/svg11.dtd"><svg t="1577358011062" class="icon" viewBox="0 0 1024 1024" version="1.1" xmlns="http://www.w3.org/2000/svg" p-id="20036" xmlns:xlink="http://www.w3.org/1999/xlink" width="200" height="200"><defs><style type="text/css"></style></defs><path d="M242.432 128c25.813333 0 46.677333 20.906667 46.677333 46.677333v79.274667a359.338667 359.338667 0 0 1 239.274667-91.392C733.013333 162.56 896 334.08 896 542.08S733.013333 921.6 528.384 921.6c-143.829333 0-267.434667-85.12-327.808-207.573333a46.677333 46.677333 0 0 1 83.754667-41.301334c45.866667 93.056 138.453333 155.52 244.053333 155.52 149.888 0 274.261333-126.506667 274.261333-286.165333S678.272 256 528.384 256c-77.44 0-147.882667 33.578667-198.016 88.149333h101.248a46.677333 46.677333 0 1 1 0 93.397334H242.432c-25.770667 0-46.677333-20.906667-46.677333-46.72V174.677333C195.754667 148.906667 216.661333 128 242.432 128z" p-id="20037"></path></svg>