<?xml version="1.0" standalone="no"?><!DOCTYPE svg PUBLIC "-//W3C//DTD SVG 1.1//EN" "http://www.w3.org/Graphics/SVG/1.1/DTD/svg11.dtd"><svg t="1577417210418" class="icon" viewBox="0 0 1024 1024" version="1.1" xmlns="http://www.w3.org/2000/svg" p-id="7576" xmlns:xlink="http://www.w3.org/1999/xlink" width="200" height="200"><defs><style type="text/css"></style></defs><path d="M128 196.266667c0-21.333333 17.066667-42.666667 42.666667-42.666667h588.8c21.333333 0 42.666667 17.066667 42.666666 42.666667v140.8c0 21.333333-17.066667 42.666667-42.666666 42.666666s-42.666667-17.066667-42.666667-42.666666V238.933333H213.333333v546.133334h204.8c21.333333 0 42.666667 17.066667 42.666667 42.666666 0 21.333333-17.066667 42.666667-42.666667 42.666667H170.666667c-21.333333 0-42.666667-17.066667-42.666667-42.666667V196.266667z" p-id="7577"></path><path d="M443.733333 640c0-136.533333 110.933333-247.466667 247.466667-247.466667S938.666667 503.466667 938.666667 640c0 136.533333-110.933333 247.466667-247.466667 247.466667s-247.466667-110.933333-247.466667-247.466667z m247.466667-170.666667c-93.866667 0-166.4 76.8-166.4 166.4 0 93.866667 76.8 166.4 166.4 166.4 93.866667 0 166.4-76.8 166.4-166.4 4.266667-89.6-72.533333-166.4-166.4-166.4z" p-id="7578"></path></svg>