<?xml version="1.0" standalone="no"?><!DOCTYPE svg PUBLIC "-//W3C//DTD SVG 1.1//EN" "http://www.w3.org/Graphics/SVG/1.1/DTD/svg11.dtd"><svg t="1577357928216" class="icon" viewBox="0 0 1024 1024" version="1.1" xmlns="http://www.w3.org/2000/svg" p-id="19924" xmlns:xlink="http://www.w3.org/1999/xlink" width="200" height="200"><defs><style type="text/css"></style></defs><path d="M256 302.933333c0-25.6 25.6-51.2 55.466667-51.2H469.333333v533.333334H362.666667c-25.6 0-42.666667 17.066667-42.666667 42.666666s17.066667 42.666667 42.666667 42.666667h298.666666c25.6 0 42.666667-17.066667 42.666667-42.666667s-17.066667-42.666667-42.666667-42.666666H554.666667V256v-4.266667h157.866666c34.133333 0 55.466667 25.6 55.466667 51.2v46.933334c0 25.6 17.066667 42.666667 42.666667 42.666666s42.666667-17.066667 42.666666-42.666666V302.933333c0-76.8-64-136.533333-140.8-136.533333H311.466667C234.666667 166.4 170.666667 226.133333 170.666667 302.933333v46.933334c0 25.6 17.066667 42.666667 42.666666 42.666666s42.666667-17.066667 42.666667-42.666666V302.933333z" p-id="19925"></path></svg>