<?xml version="1.0" standalone="no"?><!DOCTYPE svg PUBLIC "-//W3C//DTD SVG 1.1//EN" "http://www.w3.org/Graphics/SVG/1.1/DTD/svg11.dtd"><svg t="1573633384395" class="icon" viewBox="0 0 1024 1024" version="1.1" xmlns="http://www.w3.org/2000/svg" p-id="6928" xmlns:xlink="http://www.w3.org/1999/xlink" width="200" height="200"><defs><style type="text/css"></style></defs><path d="M512 938.7c-235.6 0-426.7-191-426.7-426.7S276.4 85.3 512 85.3s426.7 191 426.7 426.7c0 34-10.6 81.8-23.3 111.1-274.5 284.8-36.6 43-292.4 300.2-23.4 9.6-75.6 15.4-111 15.4z m45.9-74c-20.6-73.3-14.9-176 52.7-243.6 68.4-68.4 172.9-78.4 249.1-55.7 4.7-18.5 7.9-38.9 7.9-53.4 0-196.4-159.2-355.6-355.6-355.6S156.4 315.6 156.4 512 315.6 867.6 512 867.6c13.4 0 30.1-1.1 45.9-2.9zM387.2 639c-7.3-13.9-1.9-31.1 12-38.4 13.9-7.3 31.1-1.9 38.4 12 0.6 1.1 2.3 3.9 5 7.8 4.8 6.8 10.8 13.6 17.8 20 19.5 17.7 42.9 28.1 71 28.1 32.7 0 61.3-10 85.7-26.8 8.6-5.9 16-12.2 22.2-18.5 3.5-3.5 5.7-6.1 6.5-7.1 9.5-12.5 27.3-15 39.8-5.5s15 27.3 5.5 39.8c-7.7 10.2-21.6 24.3-41.8 38.1-33.4 23-72.9 36.8-118 36.8-43.4 0-80-16.3-109.3-43-17.3-15.8-28.7-31.7-34.8-43.3zM384 483.6c-31.4 0-56.9-25.5-56.9-56.9s25.5-56.9 56.9-56.9 56.9 25.5 56.9 56.9-25.5 56.9-56.9 56.9z m284.4 0c-31.4 0-56.9-25.5-56.9-56.9s25.5-56.9 56.9-56.9 56.9 25.5 56.9 56.9-25.4 56.9-56.9 56.9z" p-id="6929" fill="#ffffff"></path></svg>